<svg width="50" height="50" viewBox="0 0 50 50" fill="none" xmlns="http://www.w3.org/2000/svg">
<g id="tabler:settings-2">
<g id="Group">
<path id="Vector" d="M41.4062 13.0625C42.1223 13.4697 42.7168 14.0603 43.1288 14.7736C43.5407 15.4869 43.7551 16.2971 43.75 17.1208V32.2958C43.75 33.9812 42.8271 35.5354 41.3375 36.3542L27.275 45.25C26.5778 45.6328 25.7953 45.8334 25 45.8334C24.2047 45.8334 23.4222 45.6328 22.725 45.25L8.6625 36.3542C7.93368 35.9559 7.32526 35.3691 6.90086 34.6551C6.47646 33.9412 6.25167 33.1264 6.25 32.2958V17.1187C6.25 15.4333 7.17292 13.8812 8.6625 13.0625L22.725 4.77082C23.4428 4.37507 24.2491 4.16751 25.0687 4.16751C25.8884 4.16751 26.6947 4.37507 27.4125 4.77082L41.475 13.0625H41.4062Z" stroke="#391D88" stroke-width="1.5" stroke-linecap="round" stroke-linejoin="round"/>
<path id="Vector_2" d="M18.75 25C18.75 26.6576 19.4085 28.2473 20.5806 29.4194C21.7527 30.5915 23.3424 31.25 25 31.25C26.6576 31.25 28.2473 30.5915 29.4194 29.4194C30.5915 28.2473 31.25 26.6576 31.25 25C31.25 23.3424 30.5915 21.7527 29.4194 20.5806C28.2473 19.4085 26.6576 18.75 25 18.75C23.3424 18.75 21.7527 19.4085 20.5806 20.5806C19.4085 21.7527 18.75 23.3424 18.75 25Z" stroke="#391D88" stroke-width="1.5" stroke-linecap="round" stroke-linejoin="round"/>
</g>
</g>
</svg>
